<svg width="69" height="32" viewBox="0 0 68 32" fill="none" xmlns="http://www.w3.org/2000/svg">
            <path fill-rule="evenodd" clip-rule="evenodd" d="M11.6549 16.3599C11.7756 16.0994 11.7818 15.6899 11.4626 15.5433C10.6246 15.1585 9.80086 14.6804 9.13876 14.0628C7.62969 12.6583 6.55968 11.0797 5.92874 9.32715C5.51729 8.18466 5.33215 6.84696 5.67066 5.68761C5.80866 5.21613 6.12119 4.96378 6.60862 4.93054C7.29539 4.88362 7.86029 5.36972 7.69343 6.06387C7.29464 7.73196 8.05874 9.55336 9.02904 10.978C9.61505 11.8388 10.3619 12.5651 11.2688 13.1568C11.7864 13.4945 12.4251 13.8709 12.9953 13.4131C13.2008 13.2482 13.3735 12.9222 13.4933 12.673C14.411 10.7668 15.2725 9.03138 16.0782 7.46693C16.1701 7.28782 16.3358 6.98413 16.5749 6.55581C16.7389 6.26149 16.9377 5.90836 17.1711 5.49641C17.4978 4.92072 17.8654 4.35823 18.2226 3.8117L18.2296 3.80094L18.2376 3.78918L18.2762 3.73028C18.7178 3.05559 19.2096 2.41385 19.7512 1.80503C20.6986 0.740543 22.2465 -0.454453 23.7684 0.393028C25.1103 1.14039 25.2869 2.94897 25.1431 4.3203C24.9686 5.9905 24.5569 7.62022 23.9081 9.20946C23.2262 10.8814 22.163 12.5531 20.8127 13.85C19.4528 15.1549 17.8538 15.9183 16.0155 16.1401C15.9291 16.1507 15.843 16.1594 15.7569 16.1671L15.6099 16.1794C15.5326 16.1855 15.4552 16.1911 15.3778 16.1966L15.3661 16.1974L15.135 16.2143C15.0809 16.2184 15.0269 16.2229 14.9729 16.2277L14.867 16.2378C14.8042 16.2442 14.7414 16.2513 14.6786 16.2592C14.2053 16.3189 13.8581 16.5673 13.6373 17.0044C12.956 18.3521 12.1497 19.8237 11.2178 21.4193C11.0537 21.7003 10.8909 21.9824 10.728 22.2647C10.5218 22.6221 10.3155 22.9798 10.106 23.3357C10.9596 23.6561 11.8112 24.0487 12.6837 24.4562C27.9968 31.3777 48.8197 31.3138 66.5327 23.0452C67.0175 22.8189 67.6026 23.0106 67.8397 23.4733C68.0767 23.9359 67.8759 24.4945 67.3912 24.7207C49.1801 33.2219 27.7296 33.323 11.8416 26.1393C11.8378 26.1376 11.8341 26.1359 11.8303 26.1341C10.8186 25.6615 9.9349 25.2602 9.1029 24.9663C8.90151 25.2751 8.69414 25.58 8.47871 25.8799C7.23167 27.5053 5.60788 29.5063 3.22901 29.4054C2.50474 29.3744 1.71463 29.0696 1.19156 28.605C-0.0392096 27.5111 -0.0255868 25.7624 0.941816 24.4893C2.03551 23.0499 4.20833 22.4239 5.99236 22.4787C6.35855 22.4901 6.71832 22.5081 7.07239 22.5327C7.5197 22.5642 7.89843 22.4764 8.20893 22.2694C8.3374 22.1842 8.48127 22.0074 8.64088 21.739L8.83027 21.4193L9.08471 20.9866C9.38457 20.4746 9.68742 19.9509 9.9929 19.4157C10.3578 18.7762 10.7266 18.1202 11.0987 17.4477C11.3119 17.0622 11.497 16.6997 11.6549 16.3599ZM2.85841 25.3621C4.20437 24.6911 5.33051 24.4342 6.37318 24.4357C6.64401 24.5339 6.71868 24.8258 6.55527 25.0901C6.51487 25.1561 6.4723 25.2212 6.4272 25.2854C6.38907 25.3398 6.34949 25.3936 6.30846 25.4466L6.24535 25.5269L6.16132 25.6291L6.11 25.6894C6.07245 25.7339 6.03417 25.7779 5.99587 25.8214C5.39987 26.4932 4.70629 27.0476 3.83427 27.3173C3.76579 27.3384 3.69571 27.3557 3.62472 27.369C3.12673 27.4619 2.58343 27.3529 2.33492 26.8969C2.29752 26.8282 2.26904 26.7605 2.24806 26.694C2.08394 26.1713 2.40443 25.7174 2.85841 25.3621ZM22.3013 7.74127C22.7177 6.60177 22.9845 5.58566 23.1012 4.69303C23.2006 3.93954 23.2362 3.06869 22.9041 2.38282C22.1056 0.735942 19.033 6.36941 18.6483 7.07502C17.7055 8.80184 16.7362 10.6913 15.7409 12.7435C15.7198 12.7869 15.6948 12.8357 15.6677 12.8883C15.4984 13.218 15.2508 13.7002 15.4152 13.9629C15.6829 14.3895 16.8758 13.9297 17.2642 13.7639L17.2687 13.762C19.8873 12.6344 21.3962 10.219 22.3013 7.74127Z" fill="currentColor">
            </path>
            <path d="M64.1318 8.8891H64.5771C65.0322 8.91863 65.3692 9.29494 65.3302 9.72944L65.3185 9.85708C65.2795 10.2917 64.8793 10.6199 64.4246 10.5903L63.979 10.5903C63.5242 10.5607 63.1872 10.1845 63.2263 9.74998L63.2379 9.62225C63.2766 9.18778 63.6771 8.85947 64.1318 8.8891Z" fill="currentColor">
                </path>
                <path d="M41.0681 22.6923C38.9327 22.1077 40.3827 18.7756 41.0681 17.3806C41.2893 16.9303 41.5028 16.4937 41.7087 16.0709C41.7505 15.985 41.7908 15.8944 41.8292 15.7991C41.9117 15.5935 41.9863 15.366 42.053 15.1168C42.117 14.8809 42.2053 14.1463 41.7171 14.3256C41.131 14.5409 40.6372 15.0821 40.2395 15.5457C39.109 16.8654 38.2094 18.2867 37.2327 19.8667C37.2103 19.9028 37.1882 19.9391 37.1665 19.9754C37.1207 20.0518 37.0757 20.1288 37.031 20.206C36.9751 20.3036 36.9198 20.4017 36.8653 20.5L36.7433 20.722C36.5337 21.1039 36.324 21.4857 36.0769 21.8511C35.5207 22.6731 33.8956 22.0398 34.5076 21.0888C34.7554 20.7038 34.9934 20.2902 35.2217 19.8479C35.7181 18.8837 36.1899 17.8598 36.6373 16.7762C37.1643 15.4949 37.072 14.9717 36.6373 15.0379C35.362 15.2323 34.0868 17.3093 33.4551 18.3383L33.432 18.376C33.1724 18.7991 32.9326 19.2087 32.7131 19.6049C32.3471 20.1811 31.989 20.718 31.605 21.2132C31.0678 21.9059 30.4799 22.5168 29.7487 23.0389C28.8539 23.6777 27.5832 24.4044 26.4268 24.0546C25.8162 23.8699 25.3139 23.4177 24.9809 22.7549C24.9106 22.6164 24.7594 22.3766 24.5605 22.4436C24.3382 22.5179 24.1097 22.6755 23.9497 22.8358C23.2065 23.5823 22.3512 24.2575 21.2176 24.1957C20.3294 24.1467 19.724 23.4183 19.5626 22.6288C19.426 21.958 19.4667 21.2584 19.6843 20.5301C20.4395 18.0103 21.9124 15.6347 23.6996 13.5989C24.1317 13.1066 24.7968 13.3355 25.0538 13.8287C25.1186 13.953 25.1466 14.0788 25.1458 14.2036C25.145 14.3373 25.1112 14.4697 25.0542 14.5976C25.0077 14.7017 24.9459 14.8028 24.8742 14.8992C23.6775 16.5093 22.5706 18.2532 21.8163 20.08C21.5965 20.6134 21.342 21.3468 21.4811 21.9048C21.5409 22.144 21.7573 22.333 22.0338 22.2482C22.6552 22.0562 23.2401 21.4321 23.7023 20.939C23.7518 20.8861 23.7999 20.8347 23.8467 20.7855C24.0579 20.5621 24.2669 20.328 24.4731 20.0829C26.083 18.1695 27.5142 16.1466 28.7677 14.014C28.8474 13.8774 28.9335 13.7488 29.0258 13.6283C29.3002 13.2711 29.9131 13.333 30.2476 13.5923C30.6536 13.9076 30.5583 14.2757 30.3251 14.6749C30.211 14.8713 30.1008 15.0667 29.9912 15.2612L29.9908 15.2618L29.9907 15.262C29.812 15.5792 29.6344 15.8941 29.443 16.207C28.6096 17.5682 27.8663 18.9221 27.2128 20.2685L27.2123 20.2696C27.015 20.6758 26.4091 21.9232 27.1094 22.1613C27.2462 22.2081 27.4282 22.1935 27.655 22.1176C29.3469 21.5507 30.4263 19.8307 31.164 18.3563C31.3497 17.9861 31.5378 17.615 31.7265 17.2426L31.7374 17.2205L31.7423 17.2104L31.7507 17.1939L31.7508 17.1937C32.3847 15.9418 33.0254 14.6763 33.5973 13.3909C33.7659 13.0117 33.9164 12.7651 34.0483 12.6512C34.3132 12.4229 34.6421 12.356 35.0344 12.4505C35.4499 12.5508 35.6428 12.8137 35.6129 13.2391C35.6032 13.3803 35.5941 13.5197 35.5868 13.6574C35.585 13.6853 35.5945 13.7126 35.6133 13.7335C35.6153 13.7357 35.6173 13.7378 35.6195 13.7399C35.6221 13.7424 35.625 13.7448 35.628 13.747C35.629 13.7478 35.63 13.7486 35.631 13.7493C35.6329 13.7507 35.6349 13.752 35.6369 13.7533C35.6404 13.7555 35.6441 13.7575 35.6479 13.7593C35.6602 13.7651 35.6738 13.7687 35.688 13.7699C35.837 13.7832 35.9801 13.753 36.1164 13.6793C36.2655 13.5987 36.4169 13.5133 36.5699 13.4233C36.6799 13.3586 36.7908 13.2916 36.9028 13.2221C37.6426 12.7621 38.4882 12.6627 38.8649 13.6127C38.8844 13.6621 38.9051 13.7021 38.9264 13.7328C38.9466 13.7614 38.9679 13.7819 38.9896 13.7942C39.1731 13.8993 39.556 13.6794 39.7016 13.5726L39.8428 13.4684C40.3308 13.1081 40.8184 12.7481 41.4211 12.5514C42.1647 12.309 42.8365 12.363 43.4366 12.7136C44.4286 13.2938 44.1841 14.3701 43.8958 15.2487C43.8024 15.5348 43.6937 15.8162 43.5694 16.0929C43.2094 16.897 42.7992 17.7454 42.3395 18.638C42.3234 18.6694 42.3044 18.7058 42.2832 18.7464C42.006 19.2774 41.3488 20.536 41.8292 20.8006C43.228 21.5714 45.2137 17.6069 45.5769 16.8775C45.7224 16.5845 45.8684 16.2923 46.014 16.0008L46.0358 15.9573C46.3108 15.4065 46.5845 14.8584 46.8528 14.3125C47.1903 13.6254 47.5197 12.9416 47.8332 12.2601C48.1055 11.6703 48.9236 11.5386 49.4176 11.9248C49.6871 12.1349 49.6555 12.4792 49.6272 12.7888L49.6271 12.7893L49.6165 12.914C49.6072 13.0292 49.6634 13.0832 49.7847 13.076C49.9205 13.0681 50.0447 13.0321 50.1572 12.9683L51.2031 12.37C51.7578 12.0517 52.5248 12.111 52.805 12.7251C52.8477 12.8175 52.8883 12.9112 52.9269 13.0062C52.9358 13.0279 52.9486 13.0477 52.9648 13.0646C52.9715 13.0716 52.9784 13.078 52.9861 13.0839C52.9971 13.0927 53.009 13.1004 53.022 13.1068C53.0657 13.1281 53.1162 13.1336 53.1644 13.1223C53.4037 13.0665 53.609 12.9721 53.7799 12.8389C54.4777 12.2954 55.2103 11.7838 56.1203 11.7123C56.9936 11.6427 58.0503 12.0855 58.1548 13.0042C58.1736 13.1682 58.177 13.328 58.1653 13.4834C58.1584 13.5762 58.1458 13.6675 58.1278 13.7573C58.0302 14.2472 57.8772 14.7341 57.6687 15.218C57.3267 16.0108 56.9468 16.8064 56.5284 17.6048C56.2266 18.1812 55.9634 18.8044 55.7447 19.4252C55.7325 19.4602 55.7218 19.4952 55.7128 19.5304C55.6745 19.6766 55.6644 19.8248 55.6815 19.975C55.6826 19.9839 55.6843 19.9926 55.6868 20.0012C55.6888 20.0093 55.6916 20.0172 55.6951 20.0248C55.7059 20.049 55.7223 20.0707 55.7431 20.0883C55.7778 20.1172 55.8224 20.1327 55.8687 20.1317C56.2463 20.125 56.5923 20.0018 56.9068 19.7623C57.6119 19.2245 58.1538 18.4897 58.6516 17.7866C58.9003 17.4362 59.1529 17.0251 59.4096 16.5531C60.1386 15.2144 60.9433 13.8449 61.8242 12.4443L61.8958 12.3293C62.124 11.9591 62.2822 11.7027 62.728 11.6819C62.9375 11.672 63.1233 11.7233 63.2855 11.8357C63.7892 12.186 63.8792 12.787 63.5519 13.2947C62.6544 14.6874 61.8413 16.0698 61.1125 17.442C60.9762 17.6985 60.857 17.9478 60.7556 18.19C60.6507 18.4402 60.5646 18.6827 60.4969 18.9175C60.3778 19.3309 60.3078 20.1987 60.9748 20.2474C61.4223 20.2813 61.825 20.0034 62.13 19.7078C63.2158 18.6595 64.0501 17.4093 64.8981 16.1073C65.1413 15.7335 65.4747 15.6024 65.898 15.7138C66.6316 15.9064 66.5878 16.6941 66.2556 17.2064C65.3783 18.5577 64.4528 19.7269 63.4788 20.7139C62.9118 21.2881 62.2133 21.8889 61.4414 22.123C59.9906 22.5632 59.049 21.8958 58.5563 20.6565C58.5478 20.6355 58.5377 20.6218 58.5261 20.6154C58.508 20.6055 58.4857 20.6134 58.4593 20.6389C57.5692 21.5052 56.4647 22.0354 55.16 21.9952C54.0367 21.9605 53.8175 21.1038 53.8885 20.2152C53.9549 19.3855 54.1779 18.575 54.558 17.7838C54.7507 17.3829 54.947 16.9774 55.1468 16.5672C55.3318 16.1877 55.5201 15.804 55.7115 15.4163C55.9339 14.9665 56.2614 14.1742 56.0786 13.7188C56.0591 13.6705 56.0208 13.6314 55.9718 13.6097C55.9228 13.5881 55.8667 13.5853 55.8149 13.6022C55.4874 13.7097 55.1921 13.8918 54.9293 14.1482C54.4499 14.6163 54.0113 15.1161 53.6133 15.6475C52.8868 16.6193 52.1309 17.7442 51.3458 19.0223C51.2957 19.1043 51.2462 19.1866 51.1979 19.2691C51.1578 19.3371 51.1181 19.4052 51.0792 19.4734C50.9887 19.6313 50.9003 19.7898 50.8123 19.9476L50.806 19.9589L50.8 19.9701C50.5828 20.3602 50.3677 20.7466 50.1295 21.1144C49.7595 21.6857 48.9238 21.6402 48.535 21.1725C48.3155 20.9093 48.3979 20.6318 48.5681 20.3439C49.4318 18.8816 50.1644 17.3667 50.7661 15.7991C50.7852 15.7495 50.8108 15.6894 50.8395 15.6222L50.8397 15.6217C51.0291 15.1781 51.3499 14.4268 50.7661 14.3644C49.9224 14.2743 48.6865 15.9529 48.3225 16.4472C48.2801 16.5049 48.2495 16.5464 48.2328 16.5672C47.857 17.0336 47.54 17.5166 47.2374 18.0042C47.1916 18.0779 47.1447 18.1538 47.0967 18.2315L47.0958 18.2329C45.8591 20.2337 43.8661 23.4583 41.0681 22.6923Z" fill="currentColor">
                    </path>
                    </svg>
